PathFileType	4	(X/Y/Z)	C:/Users/beibeiliu/ov580/test_trc/User3\sequence.22_training_dense_left.trc
DataRate	CameraRate	NumFrames	NumMarkers	Units	OrigDataRate	OrigDataStartFrame	OrigNumFrames
120	120	11	19	mm	120	1	96
Frame#	Time	ThumbCMC			ThumbMCP			ThumbIP			ThumbTip			IndexMCP			IndexPIP			IndexTip			MiddleMCP			MiddlePIP			MiddleTip			RingMCP			RingPIP			RingTip			PinkyMCP			PinkyPIP			PinkyTip			BackHand1			BackHand2			BackHand3	
		X0	Y0	Z0	X1	Y1	Z1	X2	Y2	Z2	X3	Y3	Z3	X4	Y4	Z4	X5	Y5	Z5	X6	Y6	Z6	X7	Y7	Z7	X8	Y8	Z8	X9	Y9	Z9	X10	Y10	Z10	X11	Y11	Z11	X12	Y12	Z12	X13	Y13	Z13	X14	Y14	Z14	X15	Y15	Z15	X16	Y16	Z16	X17	Y17	Z17	X18	Y18	Z18	
0	0	-126.422	-28.6899	34.4352	-105.789	-39.9619	17.9292	-81.3037	-48.1584	1.36572	-64.3691	-56.8123	-14.3979	-112.282	-27.5265	-43.9891	-96.3753	-37.1112	-61.6353	-80.3215	-45.8328	-85.6828	-129.937	-22.6346	-57.8643	-118.647	-28.9594	-81.2217	-105.856	-36.2885	-108.128	-152.037	-23.5993	-58.8196	-147.246	-25.9885	-77.6694	-141.507	-29.6456	-102.965	-182.752	-25.9919	-50.6861	-182.331	-29.492	-67.7861	-178.411	-29.9689	-91.3523	-169	-3.97388	-13.3109	-181.401	2.31518	18.7027	-144.271	-3.70133	11.4839	
1	0.00833333	-128.266	-26.3439	29.9737	-105.222	-35.7671	14.9894	-87.027	-44.6459	-3.79525	-66.352	-53.3774	-16.8418	-113.56	-24.6375	-47.627	-97.1252	-34.0521	-68.4343	-83.3099	-43.8234	-89.6379	-130.017	-20.6354	-61.736	-120.548	-26.1213	-80.5882	-107.697	-33.9037	-110.343	-158.577	-20.4362	-60.4646	-148.075	-24.7987	-79.5251	-140.965	-27.819	-109.356	-182.974	-25.1199	-47.5774	-183.065	-28.0109	-74.3143	-182.659	-27.2836	-92.1865	-174.412	-2.74782	-11.9309	-181.308	4.50457	14.8265	-144.817	-2.49537	8.351	
2	0.0166667	-129.362	-25.4242	30.5888	-108.081	-34.4479	15.6242	-82.8577	-43.542	-6.51633	-70.3244	-51.2571	-15.772	-108.49	-25.1527	-49.345	-99.1162	-32.5031	-67.8915	-82.4023	-41.5061	-85.6615	-134.233	-18.0958	-61.0416	-121.072	-25.3236	-82.9733	-106.274	-32.6369	-108.648	-155.365	-19.9724	-57.6109	-147.603	-24.7846	-84.8839	-142.886	-27.898	-109.873	-184.438	-23.5671	-50.2455	-184.249	-28.0695	-73.0196	-181.62	-29.752	-93.1217	-175.664	-1.44325	-13.6879	-181.669	3.3593	13.984	-147.962	-1.20001	9.4599	
3	0.025	-124.876	-24.2815	26.6675	-107.527	-33.5909	11.9007	-84.9928	-42.0496	-5.95296	-69.8968	-50.0323	-15.1132	-111.926	-24.0259	-50.8515	-94.7372	-32.3679	-69.4091	-88.5558	-39.4072	-88.0566	-133.691	-17.8771	-59.2853	-121.553	-24.9709	-85.5996	-109.684	-31.78	-111.163	-154.726	-19.982	-60.2027	-149.547	-24.0869	-84.2449	-143.09	-27.1661	-104.736	-181.194	-24.9546	-47.5218	-180.561	-26.985	-71.712	-182.443	-27.6348	-93.3149	-174.054	-3.2737	-15.9639	-185.732	3.33659	11.6766	-146.329	-0.812197	6.65788	
4	0.0333333	-130.881	-23.2224	28.3145	-106.528	-31.4171	9.55318	-83.9272	-39.297	-5.3919	-67.9138	-46.8353	-17.9676	-113.174	-19.6557	-47.6426	-100.944	-26.9835	-67.0782	-87.2688	-34.3832	-87.1609	-132.276	-15.302	-64.0499	-121.799	-23.112	-87.2882	-112.072	-27.9049	-109.92	-162.158	-18.8438	-60.964	-150.863	-21.6973	-85.2896	-146.93	-25.7919	-109.989	-187.829	-23.9874	-50.8791	-182.106	-26.5856	-69.8064	-184.916	-27.3326	-93.5523	-177.245	-0.847514	-14.9558	-181.891	3.70031	12.8314	-149.123	-0.310724	6.71774	
5	0.0416667	-129.935	-21.0436	23.6646	-108.957	-28.3058	8.14639	-86.7399	-34.8607	-12.5334	-68.9986	-42.2405	-22.8102	-116.778	-14.896	-47.5747	-106.37	-22.8255	-73.9041	-93.0298	-28.7668	-90.1646	-141.418	-11.6658	-64.9708	-129.114	-16.8503	-86.465	-121.236	-23.4025	-114.131	-166.81	-15.9784	-60.7384	-158.995	-18.8128	-85.9836	-155.116	-22.1398	-107.693	-189.029	-21.3544	-48.6878	-186.687	-24.5206	-67.2606	-189.533	-28.2712	-92.0736	-178.048	0.309147	-9.12669	-187.112	3.05861	16.2623	-148.752	1.73819	9.47746	
6	0.05	-128.087	-17.8291	23.4946	-107.05	-24.5435	5.92797	-90.3889	-31.8566	-11.9734	-73.6249	-36.3836	-26.8016	-123.079	-9.43163	-55.2268	-109.893	-15.3487	-71.2773	-101.181	-21.2161	-94.6101	-147.159	-5.79736	-65.8721	-135.481	-9.81133	-85.3786	-125.636	-15.3047	-117.078	-167.503	-11.2181	-56.6606	-164.293	-13.6626	-82.7633	-157.342	-15.5695	-110.733	-194.876	-19.3816	-48.2835	-192.678	-22.3854	-72.2421	-194.124	-24.8474	-92.6513	-179.869	0.251566	-6.7401	-190.739	3.55951	19.9837	-154.458	5.68929	10.7928	
7	0.0583333	-129.437	-16.9904	26.2721	-109.17	-23.7133	6.16754	-86.8889	-27.2854	-17.414	-71.6262	-32.8299	-28.4896	-126.133	-5.53589	-55.6018	-112.341	-12.6576	-78.2388	-107.416	-16.8237	-98.297	-149.636	-2.78948	-65.8061	-141.257	-6.49308	-87.8076	-127.944	-11.5495	-120.401	-170.923	-8.36516	-58.0544	-171.625	-11.0012	-84.077	-166.996	-13.2175	-108.373	-197.48	-16.5985	-49.9418	-196.289	-20.107	-67.8537	-198.228	-23.0269	-94.561	-187.043	1.48404	-6.8672	-191.053	3.63613	19.3453	-152.61	7.62594	10.1458	
8	0.0666667	-128.849	-18.6204	22.3803	-109.495	-24.5393	1.84218	-91.7245	-29.0072	-18.5702	-73.0082	-32.9281	-34.8597	-128.075	-6.21332	-54.2333	-115.329	-12.7862	-80.5242	-103.616	-18.8602	-102.227	-151.593	-3.00516	-62.773	-145.197	-7.24823	-92.4357	-134.249	-11.8548	-119.301	-174.065	-9.08232	-59.988	-173.159	-11.2067	-83.2961	-166.008	-13.3516	-110.313	-199.431	-18.5654	-44.7774	-198.011	-20.8956	-65.8889	-201.914	-22.4804	-91.3223	-184.382	0.159881	-7.81201	-191.67	1.63263	22.7164	-154.383	4.05646	10.4668	
9	0.075	-130.787	-20.235	23.6231	-105.635	-25.9558	3.44154	-87.321	-30.3711	-15.5086	-76.3271	-37.0021	-32.5742	-126.869	-9.33172	-55.2576	-119.484	-14.5005	-76.8847	-108.741	-19.7709	-100.9	-149.902	-5.30988	-64.789	-142.26	-9.14651	-89.2711	-134.857	-14.5392	-117.648	-170.915	-10.6417	-60.2011	-174.74	-12.8901	-81.469	-168.768	-16.2061	-108.458	-195.096	-20.2442	-42.8731	-199.507	-22.8738	-67.98	-200.952	-24.4248	-89.422	-186.909	-0.909601	-7.33214	-190.309	1.60771	18.9122	-153.046	3.14717	11.171	
10	0.0833333	-128.064	-20.4504	22.2258	-107.804	-27.3485	3.7096	-88.6604	-32.8095	-17.9722	-72.5171	-37.7058	-32.9704	-129.005	-12.0383	-56.7422	-116.756	-17.4998	-76.8183	-109.06	-22.8339	-102.848	-150.819	-7.57717	-66.3921	-143.459	-12.0026	-88.1584	-138.747	-16.933	-118.066	-177.656	-13.8091	-58.8533	-174.34	-14.7217	-81.275	-168.507	-16.6593	-109.364	-195.096	-22.1446	-42.7441	-198.912	-23.5784	-66.671	-201.11	-25.7799	-88.1418	-186.518	-2.52159	-6.6462	-189.128	-0.835166	18.3406	-154.721	2.47578	9.83193	
